<svg id="visual" viewBox="0 0 900 600" width="900" height="600" xmlns="http://www.w3.org/2000/svg" xmlns:xlink="http://www.w3.org/1999/xlink" version="1.1"><rect x="0" y="0" width="900" height="600" fill="#002233"></rect><path d="M0 451L12.5 452.8C25 454.7 50 458.3 75 453.3C100 448.3 125 434.7 150 426.3C175 418 200 415 225 415.8C250 416.7 275 421.3 300 426.3C325 431.3 350 436.7 375 432C400 427.3 425 412.7 450 421.5C475 430.3 500 462.7 525 469.3C550 476 575 457 600 448.2C625 439.3 650 440.7 675 442.3C700 444 725 446 750 440.7C775 435.3 800 422.7 825 424.8C850 427 875 444 887.5 452.5L900 461L900 601L887.5 601C875 601 850 601 825 601C800 601 775 601 750 601C725 601 700 601 675 601C650 601 625 601 600 601C575 601 550 601 525 601C500 601 475 601 450 601C425 601 400 601 375 601C350 601 325 601 300 601C275 601 250 601 225 601C200 601 175 601 150 601C125 601 100 601 75 601C50 601 25 601 12.5 601L0 601Z" fill="#0066FF" stroke-linecap="round" stroke-linejoin="miter"></path></svg>